<svg width="41" height="42" viewBox="0 0 41 42" fill="none" xmlns="http://www.w3.org/2000/svg">
<path fill-rule="evenodd" clip-rule="evenodd" d="M34.8602 12.4114C38.1018 12.4114 40.7297 9.7835 40.7297 6.54186C40.7297 3.30023 38.1018 0.672363 34.8602 0.672363C31.6185 0.672363 28.9907 3.30023 28.9907 6.54186C28.9907 9.7835 31.6185 12.4114 34.8602 12.4114Z" fill="#8055FA"/>
<path fill-rule="evenodd" clip-rule="evenodd" d="M34.86 26.4943C38.1016 26.4943 40.7295 23.8667 40.7295 20.6255C40.7295 17.3843 38.1016 14.7568 34.86 14.7568C31.6184 14.7568 28.9905 17.3843 28.9905 20.6255C28.9905 23.8667 31.6184 26.4943 34.86 26.4943Z" fill="#7550FB"/>
<path fill-rule="evenodd" clip-rule="evenodd" d="M34.86 41.1028C38.1016 41.1028 40.7295 38.4749 40.7295 35.2333C40.7295 31.9916 38.1016 29.3638 34.86 29.3638C31.6184 29.3638 28.9905 31.9916 28.9905 35.2333C28.9905 38.4749 31.6184 41.1028 34.86 41.1028Z" fill="#6A4AFC"/>
<path d="M20.2527 26.4943C23.4939 26.4943 26.1214 23.8667 26.1214 20.6255C26.1214 17.3843 23.4939 14.7568 20.2527 14.7568C17.0115 14.7568 14.384 17.3843 14.384 20.6255C14.384 23.8667 17.0115 26.4943 20.2527 26.4943Z" fill="#6045FD"/>
<path d="M20.2527 26.4943C23.4939 26.4943 26.1214 23.8667 26.1214 20.6255C26.1214 17.3843 23.4939 14.7568 20.2527 14.7568C17.0115 14.7568 14.384 17.3843 14.384 20.6255C14.384 23.8667 17.0115 26.4943 20.2527 26.4943Z" stroke="#A0A3BD"/>
<path fill-rule="evenodd" clip-rule="evenodd" d="M20.2521 41.1028C23.4933 41.1028 26.1208 38.4749 26.1208 35.2333C26.1208 31.9916 23.4933 29.3638 20.2521 29.3638C17.0109 29.3638 14.3834 31.9916 14.3834 35.2333C14.3834 38.4749 17.0109 41.1028 20.2521 41.1028Z" fill="#553FFE"/>
<path fill-rule="evenodd" clip-rule="evenodd" d="M6.16833 41.1023C9.40996 41.1023 12.0378 38.4744 12.0378 35.2328C12.0378 31.9911 9.40996 29.3633 6.16833 29.3633C2.92669 29.3633 0.298828 31.9911 0.298828 35.2328C0.298828 38.4744 2.92669 41.1023 6.16833 41.1023Z" fill="#4A3AFF"/>
</svg>
